<svg aria-hidden="true" style="position: absolute; width: 0; height: 0; overflow: hidden;" version="1.1" xmlns="http://www.w3.org/2000/svg" xmlns:xlink="http://www.w3.org/1999/xlink">
<defs>
<symbol id="icon-oasis-logo" viewBox="0 0 116 32">
<path fill="#fe3939" style="fill: var(--color1, #fe3939)" d="M94.044 5.582c0-0.066 0.011-0.132 0.033-0.198 0.099-0.516 0.374-0.923 0.825-1.198 0.099-0.055 0.22-0.033 0.274 0.066s0.033 0.231-0.065 0.286c-0.187 0.11-0.341 0.253-0.451 0.44-0.418 0.659-0.176 1.527 0.516 1.879 0.791 0.407 1.737-0.066 1.912-0.934 0.11-0.538-0.143-1.099-0.615-1.385-0.099-0.055-0.132-0.132-0.11-0.242 0.033-0.132 0.176-0.198 0.296-0.132 0.099 0.066 0.198 0.132 0.286 0.209 0.319 0.286 0.505 0.637 0.56 1.055 0.077 0.615-0.121 1.143-0.593 1.549-0.286 0.253-0.615 0.385-1 0.418h-0.242c0 0-0.011 0-0.022 0-0.077-0.011-0.165-0.022-0.242-0.033-0.67-0.132-1.23-0.714-1.341-1.396 0-0.066-0.022-0.132-0.022-0.198v-0.187z"></path>
<path fill="#fe3939" style="fill: var(--color1, #fe3939)" d="M95.978 4.791v0.615c0 0.11-0.055 0.187-0.154 0.209-0.121 0.033-0.242-0.044-0.253-0.165 0-0.011 0-0.033 0-0.044v-1.231c0-0.11 0.066-0.198 0.165-0.22 0.11-0.022 0.219 0.055 0.231 0.165 0 0.022 0 0.033 0 0.055v0.604l0.011 0.011z"></path>
<path fill="#fff" style="fill: var(--color2, #fff)" d="M36.868 14.802c0-5.637 3.407-9.615 9.077-9.615s9.011 3.934 9.011 9.582c0 5.648-3.407 9.615-9.044 9.615s-9.044-3.901-9.044-9.582zM51.341 14.802c0-3.791-1.703-6.703-5.396-6.703s-5.462 2.912-5.462 6.703c0 3.791 1.703 6.703 5.462 6.703s5.396-2.945 5.396-6.703z"></path>
<path fill="#fff" style="fill: var(--color2, #fff)" d="M56.978 19.165c0-4.044 3.055-5.253 7.56-6.099 2.835-0.527 4.571-0.89 4.571-2.659 0-1.308-0.78-2.407-3.439-2.407-3.154 0-4.11 0.989-4.297 3.407h-3.549c0.176-3.473 2.451-6.209 7.978-6.209 3.725 0 6.704 1.56 6.704 6.242v8.297c0 1.308 0.176 1.989 0.846 1.989 0.11 0 0.209 0 0.429-0.033v2.132c-0.605 0.143-1.209 0.209-1.77 0.209-1.736 0-2.659-0.67-2.868-2.736h-0.066c-1.176 1.879-3.231 3.055-6.176 3.055-3.615 0-5.923-2.088-5.923-5.176v-0.011zM69.11 16.791v-2.593c-0.571 0.527-2.132 0.923-3.967 1.308-3.198 0.637-4.538 1.527-4.538 3.407 0 1.703 0.923 2.626 3.088 2.626 3.121 0 5.428-1.593 5.428-4.758l-0.011 0.011z"></path>
<path fill="#fff" style="fill: var(--color2, #fff)" d="M75.528 17.824h3.517c0.143 2.088 1.418 3.725 4.791 3.725 3.055 0 3.868-1.352 3.868-2.659 0-2.275-2.406-2.517-4.758-3.011-3.154-0.747-6.781-1.67-6.781-5.429 0-3.121 2.516-5.22 6.879-5.22 4.967 0 7.341 2.659 7.594 5.78h-3.517c-0.253-1.385-0.989-2.978-4.011-2.978-2.341 0-3.33 0.923-3.33 2.275 0 1.879 2.022 2.055 4.572 2.626 3.329 0.78 6.956 1.736 6.956 5.78 0 3.517-2.692 5.637-7.451 5.637-5.494 0-8.231-2.835-8.34-6.527h0.011z"></path>
<path fill="#fff" style="fill: var(--color2, #fff)" d="M94.044 23.846v-15.055h3.472v15.055h-3.472z"></path>
<path fill="#fff" style="fill: var(--color2, #fff)" d="M100.385 17.824h3.209c0.077 0 0.132 0.055 0.143 0.132 0.187 2.033 1.484 3.593 4.78 3.593 3.055 0 3.868-1.352 3.868-2.659 0-2.275-2.407-2.517-4.758-3.011-3.154-0.747-6.78-1.67-6.78-5.429 0-3.121 2.516-5.22 6.879-5.22 4.868 0 7.252 2.56 7.571 5.604 0 0.099-0.066 0.176-0.165 0.176h-3.198c-0.077 0-0.143-0.055-0.154-0.132-0.274-1.352-1.066-2.846-3.989-2.846-2.34 0-3.329 0.923-3.329 2.275 0 1.879 2.022 2.055 4.571 2.626 3.33 0.78 6.956 1.736 6.956 5.78 0 3.517-2.692 5.637-7.451 5.637-5.418 0-8.143-2.747-8.33-6.352 0-0.088 0.066-0.176 0.165-0.176h0.011z"></path>
<path fill="#fe3939" style="fill: var(--color1, #fe3939)" d="M42.044 27.89c0 0 0.022-0.033 0.033-0.055 0-0.022 0.033-0.033 0.055-0.033s0.055-0.011 0.099-0.022c0.044 0 0.099 0 0.176 0 0.033 0 0.077 0 0.132 0s0.11 0 0.176 0c0.066 0 0.132 0 0.198 0s0.132 0 0.187-0.011c0 0.044 0.011 0.077 0.011 0.099 0 0.066-0.022 0.099-0.066 0.11-0.154 0.022-0.253 0.055-0.308 0.088s-0.077 0.088-0.077 0.143c0 0 0 0.066 0 0.165s0.011 0.286 0.033 0.538c0.022 0.253 0.033 0.593 0.044 1.011 0.022 0.418 0.044 0.945 0.066 1.571 0 0.077 0.033 0.143 0.088 0.176s0.154 0.066 0.308 0.099c0.022 0 0.033 0.011 0.044 0.033 0 0.022 0.011 0.044 0.011 0.066s0 0.055-0.011 0.099c-0.154 0-0.286-0.011-0.407-0.022s-0.231 0-0.341 0c-0.044 0-0.099 0-0.165 0s-0.132 0-0.198 0c-0.066 0-0.143 0-0.209 0s-0.132 0-0.176 0.011c0-0.044-0.011-0.077-0.011-0.099 0-0.066 0.022-0.099 0.066-0.099 0.165-0.033 0.286-0.066 0.352-0.099s0.088-0.088 0.088-0.176c0-0.011 0-0.088 0-0.231s-0.011-0.319-0.022-0.527c0-0.209-0.022-0.44-0.033-0.681 0-0.242-0.022-0.473-0.033-0.681 0-0.22-0.022-0.396-0.033-0.56 0-0.154-0.011-0.253-0.011-0.286l-1.396 3.374c0 0-0.033 0.066-0.044 0.088s-0.033 0.033-0.066 0.033-0.044 0-0.055 0l-1.56-3.582c0 0 0 0.143-0.011 0.308 0 0.165-0.011 0.363-0.022 0.582 0 0.231-0.022 0.462-0.033 0.714s-0.022 0.484-0.033 0.692c0 0.209-0.022 0.396-0.022 0.538s0 0.22 0 0.231c0 0.132 0.143 0.22 0.44 0.275 0.044 0 0.066 0.033 0.066 0.099 0 0.022 0 0.055-0.011 0.099-0.11 0-0.231-0.011-0.341-0.022-0.11 0-0.209 0-0.297 0-0.066 0-0.165 0-0.275 0s-0.22 0.011-0.33 0.022c0-0.044-0.011-0.077-0.011-0.099 0-0.055 0.022-0.088 0.066-0.099 0.11-0.022 0.209-0.055 0.275-0.088 0.066-0.044 0.11-0.099 0.121-0.187 0-0.033 0-0.143 0.011-0.319 0-0.176 0.022-0.385 0.033-0.626 0-0.242 0.022-0.505 0.033-0.769 0.011-0.275 0.022-0.527 0.033-0.758 0-0.231 0.022-0.429 0.022-0.571 0-0.154 0-0.231 0-0.231 0-0.066-0.022-0.121-0.077-0.154s-0.154-0.066-0.308-0.088c-0.044 0-0.066-0.044-0.066-0.11 0-0.022 0-0.055 0.011-0.099 0.055 0 0.121 0 0.187 0.011 0.066 0 0.143 0 0.209 0s0.132 0 0.198 0c0.066 0 0.11 0 0.154 0 0.077 0 0.132 0 0.176 0s0.077 0.011 0.099 0.022 0.044 0.022 0.055 0.033c0 0.022 0.022 0.033 0.033 0.055l1.363 3.187 1.297-3.187h0.011z"></path>
<path fill="#fe3939" style="fill: var(--color1, #fe3939)" d="M46.308 30.396h-1.429l-0.407 1.033c0 0-0.033 0.099-0.033 0.132 0 0.088 0.132 0.154 0.385 0.187 0.033 0 0.055 0.011 0.066 0.033 0 0.022 0.011 0.044 0.011 0.066s0 0.055-0.011 0.099c-0.11 0-0.231-0.011-0.363-0.022s-0.253 0-0.374 0c-0.088 0-0.176 0-0.264 0s-0.187 0.011-0.286 0.022c0-0.033-0.011-0.066-0.011-0.099s0-0.055 0.011-0.077c0-0.022 0.033-0.033 0.066-0.033 0.132-0.022 0.231-0.044 0.297-0.077s0.11-0.077 0.143-0.154l1.538-3.703c0.033-0.077 0.066-0.11 0.121-0.11 0.022 0 0.044 0 0.077 0.011l1.549 3.813c0.022 0.055 0.088 0.11 0.176 0.143s0.176 0.055 0.264 0.066c0.022 0 0.044 0.022 0.066 0.033 0.011 0.011 0.022 0.044 0.022 0.077 0 0.022 0 0.055-0.011 0.099-0.132 0-0.275-0.011-0.407-0.022-0.132 0-0.253 0-0.374 0s-0.253 0-0.407 0c-0.154 0-0.297 0.011-0.418 0.022 0-0.044-0.011-0.077-0.011-0.099 0-0.033 0-0.066 0.022-0.077s0.033-0.022 0.044-0.022c0.11-0.022 0.198-0.044 0.264-0.077s0.099-0.066 0.099-0.121c0-0.022 0-0.055-0.022-0.099l-0.407-1.055 0.011 0.011zM46.209 30.132l-0.593-1.56-0.615 1.56h1.209z"></path>
<path fill="#fe3939" style="fill: var(--color1, #fe3939)" d="M51.549 30.901v-2.67c0-0.088-0.033-0.165-0.099-0.198s-0.187-0.066-0.341-0.088c-0.044 0-0.066-0.044-0.066-0.11 0-0.022 0-0.055 0.011-0.099 0.11 0 0.22 0.011 0.33 0.022 0.11 0 0.22 0 0.308 0s0.187 0 0.297 0c0.099 0 0.198-0.011 0.297-0.022 0 0.044 0.011 0.077 0.011 0.099 0 0.066-0.022 0.099-0.066 0.11-0.143 0.022-0.242 0.055-0.297 0.088s-0.077 0.099-0.077 0.187v3.758c0 0-0.022 0-0.044 0s-0.033 0-0.055 0-0.055 0-0.088-0.022c-0.033-0.022-0.055-0.044-0.088-0.088l-2.593-3.418v3.011c0 0.088 0.033 0.143 0.088 0.176s0.176 0.066 0.341 0.099c0.044 0 0.066 0.044 0.066 0.099 0 0.022 0 0.055-0.011 0.099-0.11 0-0.209-0.011-0.319-0.022s-0.209 0-0.308 0c-0.088 0-0.187 0-0.297 0s-0.22 0.011-0.308 0.022c0-0.044-0.011-0.077-0.011-0.099 0-0.055 0.022-0.088 0.066-0.099 0.154-0.033 0.253-0.066 0.308-0.099s0.077-0.088 0.077-0.176v-3.286c0-0.066-0.022-0.121-0.077-0.154-0.044-0.033-0.154-0.066-0.308-0.088-0.044 0-0.066-0.044-0.066-0.11 0-0.022 0-0.044 0-0.055s0-0.033 0-0.044c0.088 0 0.165 0.011 0.242 0.022 0.066 0 0.143 0 0.22 0s0.143 0 0.209 0c0.121 0 0.209 0 0.242 0.011 0.044 0 0.077 0.033 0.099 0.066l2.297 3.055 0.011 0.022z"></path>
<path fill="#fe3939" style="fill: var(--color1, #fe3939)" d="M54.945 30.396h-1.429l-0.407 1.033c0 0-0.033 0.099-0.033 0.132 0 0.088 0.132 0.154 0.385 0.187 0.033 0 0.055 0.011 0.066 0.033 0 0.022 0.011 0.044 0.011 0.066s0 0.055-0.011 0.099c-0.11 0-0.231-0.011-0.363-0.022s-0.253 0-0.374 0c-0.088 0-0.176 0-0.264 0s-0.187 0.011-0.286 0.022c0-0.033-0.011-0.066-0.011-0.099s0-0.055 0.011-0.077c0-0.022 0.033-0.033 0.066-0.033 0.132-0.022 0.231-0.044 0.297-0.077s0.11-0.077 0.143-0.154l1.538-3.703c0.033-0.077 0.066-0.11 0.121-0.11 0.022 0 0.044 0 0.077 0.011l1.549 3.813c0.022 0.055 0.088 0.11 0.176 0.143s0.176 0.055 0.264 0.066c0.022 0 0.044 0.022 0.066 0.033 0.011 0.011 0.022 0.044 0.022 0.077 0 0.022 0 0.055-0.011 0.099-0.132 0-0.275-0.011-0.407-0.022-0.132 0-0.253 0-0.374 0s-0.253 0-0.407 0c-0.154 0-0.297 0.011-0.418 0.022 0-0.044-0.011-0.077-0.011-0.099 0-0.033 0-0.066 0.022-0.077s0.033-0.022 0.044-0.022c0.11-0.022 0.198-0.044 0.264-0.077s0.099-0.066 0.099-0.121c0-0.022 0-0.055-0.022-0.099l-0.407-1.055 0.011 0.011zM54.846 30.132l-0.593-1.56-0.615 1.56h1.209z"></path>
<path fill="#fe3939" style="fill: var(--color1, #fe3939)" d="M60.044 31.89c-0.187 0.033-0.385 0.066-0.582 0.077-0.198 0.022-0.44 0.033-0.703 0.033-0.363 0-0.681-0.055-0.956-0.165s-0.495-0.264-0.67-0.451c-0.176-0.187-0.308-0.418-0.396-0.681s-0.132-0.549-0.132-0.857c0-0.253 0.044-0.505 0.132-0.769 0.088-0.253 0.22-0.484 0.396-0.692s0.396-0.374 0.67-0.506c0.264-0.132 0.582-0.198 0.934-0.198 0.132 0 0.253 0 0.363 0 0.121 0 0.231 0.022 0.352 0.033s0.231 0.033 0.352 0.066c0.121 0.022 0.242 0.055 0.385 0.088 0 0.154 0.022 0.308 0.044 0.462 0.022 0.165 0.055 0.319 0.088 0.473 0 0-0.022 0.011-0.055 0.022s-0.044 0-0.066 0c-0.066 0-0.11-0.033-0.132-0.088-0.077-0.286-0.209-0.494-0.385-0.615-0.187-0.121-0.44-0.187-0.78-0.187-0.275 0-0.506 0.044-0.714 0.132s-0.374 0.209-0.506 0.363c-0.132 0.154-0.231 0.341-0.308 0.56-0.066 0.22-0.099 0.451-0.099 0.703 0 0.297 0.044 0.56 0.132 0.813 0.088 0.242 0.209 0.462 0.363 0.637s0.33 0.319 0.538 0.418c0.209 0.099 0.429 0.143 0.67 0.143 0.121 0 0.253 0 0.374-0.022s0.231-0.033 0.319-0.066v-0.978c0-0.11-0.033-0.198-0.099-0.242s-0.187-0.077-0.341-0.099c-0.033 0-0.055-0.022-0.066-0.044s-0.022-0.055-0.022-0.077c0-0.033 0-0.066 0.011-0.099 0.121 0 0.264 0.011 0.407 0.022 0.154 0 0.275 0 0.385 0s0.242 0 0.385 0c0.143 0 0.264-0.011 0.374-0.022 0 0.044 0.011 0.077 0.011 0.099 0 0.044 0 0.066-0.022 0.088-0.011 0.011-0.033 0.022-0.055 0.033-0.132 0.022-0.231 0.044-0.286 0.088s-0.077 0.099-0.077 0.187v1.132c0 0 0 0.066-0.033 0.099-0.022 0.022-0.077 0.044-0.176 0.066l-0.022 0.022z"></path>
<path fill="#fe3939" style="fill: var(--color1, #fe3939)" d="M62.264 28.033v1.637h1c0.088 0 0.143-0.044 0.187-0.121s0.066-0.187 0.088-0.308c0.011-0.055 0.055-0.088 0.11-0.088 0.011 0 0.033 0 0.055 0s0.033 0 0.055 0.011c0 0.099-0.011 0.198-0.022 0.319s0 0.22 0 0.308c0 0.077 0 0.165 0 0.264s0.011 0.22 0.022 0.352c-0.033 0-0.066 0.011-0.099 0.011-0.066 0-0.11-0.033-0.121-0.088-0.022-0.121-0.055-0.22-0.088-0.308s-0.099-0.121-0.187-0.121h-1v1.506c0 0.088 0.055 0.154 0.176 0.176s0.308 0.044 0.571 0.044h0.352c0.121 0 0.231-0.022 0.319-0.055s0.176-0.088 0.242-0.143c0.066-0.055 0.132-0.132 0.187-0.22s0.11-0.176 0.165-0.286c0.011-0.033 0.044-0.044 0.099-0.044 0.022 0 0.044 0 0.066 0.022 0.022 0.011 0.044 0.022 0.066 0.033-0.033 0.077-0.077 0.176-0.099 0.286s-0.055 0.22-0.077 0.319c-0.022 0.099-0.055 0.187-0.077 0.264-0.033 0.077-0.066 0.11-0.11 0.11-0.033 0-0.088 0-0.143 0-0.066 0-0.132 0-0.209 0s-0.154 0-0.231 0c-0.077 0-0.143 0-0.198 0h-1.396c-0.121 0-0.253 0-0.396 0s-0.275 0.011-0.407 0.022c0-0.044-0.011-0.077-0.011-0.099 0-0.055 0.022-0.088 0.066-0.099 0.165-0.033 0.275-0.066 0.352-0.099 0.066-0.033 0.11-0.088 0.11-0.176v-3.253c0-0.088-0.033-0.143-0.088-0.176-0.066-0.033-0.187-0.066-0.363-0.099-0.044 0-0.066-0.044-0.066-0.11 0-0.022 0-0.044 0-0.055s0-0.033 0-0.044c0.187 0.011 0.341 0.022 0.462 0.022s0.231 0 0.33 0h1.253c0.187 0 0.363 0 0.495-0.022s0.231-0.022 0.286-0.022 0.088 0.033 0.11 0.11c0.022 0.066 0.033 0.154 0.044 0.253s0.033 0.198 0.044 0.308c0.022 0.11 0.044 0.209 0.099 0.286-0.033 0.022-0.077 0.033-0.11 0.033-0.055 0-0.088-0.022-0.11-0.055-0.055-0.11-0.099-0.209-0.143-0.286s-0.099-0.143-0.165-0.198-0.132-0.088-0.22-0.11c-0.088-0.022-0.198-0.033-0.319-0.033h-0.945l-0.011 0.022z"></path>
<path fill="#fe3939" style="fill: var(--color1, #fe3939)" d="M68.934 27.89c0 0 0.022-0.033 0.033-0.055 0-0.022 0.033-0.033 0.055-0.033s0.055-0.011 0.099-0.022c0.044 0 0.099 0 0.176 0 0.033 0 0.077 0 0.131 0s0.11 0 0.176 0c0.066 0 0.132 0 0.198 0s0.132 0 0.187-0.011c0 0.044 0.011 0.077 0.011 0.099 0 0.066-0.022 0.099-0.065 0.11-0.154 0.022-0.253 0.055-0.308 0.088s-0.077 0.088-0.077 0.143c0 0 0 0.066 0 0.165s0.011 0.286 0.033 0.538c0.022 0.253 0.033 0.593 0.044 1.011 0.022 0.418 0.044 0.945 0.066 1.571 0 0.077 0.033 0.143 0.088 0.176s0.154 0.066 0.308 0.099c0.022 0 0.033 0.011 0.044 0.033 0 0.022 0.011 0.044 0.011 0.066s0 0.055-0.011 0.099c-0.154 0-0.285-0.011-0.406-0.022s-0.231 0-0.34 0c-0.044 0-0.099 0-0.165 0s-0.132 0-0.198 0-0.143 0-0.209 0c-0.065 0-0.131 0-0.176 0.011 0-0.044-0.011-0.077-0.011-0.099 0-0.066 0.022-0.099 0.066-0.099 0.165-0.033 0.285-0.066 0.351-0.099s0.088-0.088 0.088-0.176c0-0.011 0-0.088 0-0.231s-0.011-0.319-0.022-0.527c0-0.209-0.022-0.44-0.033-0.681s-0.022-0.473-0.033-0.681c0-0.22-0.022-0.396-0.033-0.56 0-0.154-0.011-0.253-0.011-0.286l-1.396 3.374c0 0-0.033 0.066-0.044 0.088s-0.033 0.033-0.066 0.033c-0.033 0-0.044 0-0.055 0l-1.56-3.582c0 0 0 0.143-0.011 0.308s-0.011 0.363-0.022 0.582c-0.011 0.22-0.022 0.462-0.033 0.714s-0.022 0.484-0.033 0.692c0 0.209-0.022 0.396-0.022 0.538s0 0.22 0 0.231c0 0.132 0.143 0.22 0.44 0.275 0.044 0 0.066 0.033 0.066 0.099 0 0.022 0 0.055-0.011 0.099-0.11 0-0.231-0.011-0.341-0.022s-0.209 0-0.297 0c-0.066 0-0.165 0-0.275 0s-0.22 0.011-0.33 0.022c0-0.044-0.011-0.077-0.011-0.099 0-0.055 0.022-0.088 0.066-0.099 0.11-0.022 0.209-0.055 0.275-0.088 0.066-0.044 0.11-0.099 0.121-0.187 0-0.033 0-0.143 0.011-0.319 0-0.176 0.022-0.385 0.033-0.626 0-0.242 0.022-0.505 0.033-0.769 0.011-0.275 0.022-0.527 0.033-0.758 0-0.231 0.022-0.429 0.022-0.571 0-0.154 0-0.231 0-0.231 0-0.066-0.022-0.121-0.077-0.154s-0.154-0.066-0.308-0.088c-0.044 0-0.066-0.044-0.066-0.11 0-0.022 0-0.055 0.011-0.099 0.055 0 0.121 0 0.187 0.011 0.066 0 0.143 0 0.209 0s0.132 0 0.198 0c0.066 0 0.11 0 0.154 0 0.077 0 0.132 0 0.176 0s0.077 0.011 0.099 0.022c0.022 0.011 0.044 0.022 0.055 0.033 0 0.022 0.022 0.033 0.033 0.055l1.363 3.187 1.297-3.187h0.011z"></path>
<path fill="#fe3939" style="fill: var(--color1, #fe3939)" d="M71.868 28.033v1.637h1c0.088 0 0.143-0.044 0.187-0.121s0.066-0.187 0.088-0.308c0.011-0.055 0.054-0.088 0.11-0.088 0.011 0 0.033 0 0.055 0s0.033 0 0.054 0.011c0 0.099-0.011 0.198-0.022 0.319s0 0.22 0 0.308c0 0.077 0 0.165 0 0.264s0.011 0.22 0.022 0.352c-0.033 0-0.065 0.011-0.099 0.011-0.066 0-0.11-0.033-0.121-0.088-0.022-0.121-0.055-0.22-0.088-0.308s-0.099-0.121-0.187-0.121h-1v1.506c0 0.088 0.055 0.154 0.176 0.176s0.307 0.044 0.571 0.044h0.351c0.121 0 0.231-0.022 0.319-0.055s0.176-0.088 0.242-0.143c0.066-0.055 0.132-0.132 0.187-0.22s0.11-0.176 0.165-0.286c0.011-0.033 0.044-0.044 0.099-0.044 0.022 0 0.044 0 0.066 0.022 0.022 0.011 0.044 0.022 0.066 0.033-0.033 0.077-0.077 0.176-0.099 0.286s-0.055 0.22-0.077 0.319c-0.022 0.099-0.055 0.187-0.077 0.264-0.033 0.077-0.066 0.11-0.11 0.11-0.033 0-0.088 0-0.143 0-0.065 0-0.131 0-0.208 0s-0.154 0-0.231 0c-0.077 0-0.143 0-0.198 0h-1.395c-0.121 0-0.253 0-0.396 0s-0.274 0.011-0.406 0.022c0-0.044-0.011-0.077-0.011-0.099 0-0.055 0.022-0.088 0.066-0.099 0.165-0.033 0.274-0.066 0.351-0.099 0.066-0.033 0.11-0.088 0.11-0.176v-3.253c0-0.088-0.033-0.143-0.088-0.176-0.066-0.033-0.187-0.066-0.363-0.099-0.044 0-0.066-0.044-0.066-0.11 0-0.022 0-0.044 0-0.055s0-0.033 0-0.044c0.187 0.011 0.341 0.022 0.462 0.022s0.231 0 0.33 0h1.253c0.187 0 0.363 0 0.495-0.022s0.231-0.022 0.285-0.022c0.055 0 0.088 0.033 0.11 0.11 0.022 0.066 0.033 0.154 0.044 0.253s0.033 0.198 0.044 0.308c0.022 0.11 0.044 0.209 0.099 0.286-0.033 0.022-0.077 0.033-0.11 0.033-0.055 0-0.088-0.022-0.11-0.055-0.054-0.11-0.099-0.209-0.143-0.286s-0.099-0.143-0.165-0.198c-0.065-0.055-0.131-0.088-0.219-0.11s-0.198-0.033-0.319-0.033h-0.945l-0.011 0.022z"></path>
<path fill="#fe3939" style="fill: var(--color1, #fe3939)" d="M77.912 30.901v-2.67c0-0.088-0.033-0.165-0.099-0.198s-0.187-0.066-0.34-0.088c-0.044 0-0.066-0.044-0.066-0.11 0-0.022 0-0.055 0.011-0.099 0.11 0 0.22 0.011 0.33 0.022 0.11 0 0.22 0 0.308 0s0.187 0 0.297 0c0.11 0 0.198-0.011 0.297-0.022 0 0.044 0.011 0.077 0.011 0.099 0 0.066-0.022 0.099-0.066 0.11-0.143 0.022-0.242 0.055-0.297 0.088s-0.077 0.099-0.077 0.187v3.758c0 0-0.022 0-0.044 0s-0.033 0-0.055 0-0.055 0-0.088-0.022-0.055-0.044-0.088-0.088l-2.593-3.418v3.011c0 0.088 0.033 0.143 0.088 0.176s0.176 0.066 0.34 0.099c0.044 0 0.066 0.044 0.066 0.099 0 0.022 0 0.055-0.011 0.099-0.11 0-0.209-0.011-0.319-0.022s-0.209 0-0.308 0c-0.088 0-0.187 0-0.297 0s-0.22 0.011-0.308 0.022c0-0.044-0.011-0.077-0.011-0.099 0-0.055 0.022-0.088 0.066-0.099 0.154-0.033 0.253-0.066 0.308-0.099s0.077-0.088 0.077-0.176v-3.286c0-0.066-0.022-0.121-0.077-0.154-0.044-0.033-0.154-0.066-0.308-0.088-0.044 0-0.066-0.044-0.066-0.11 0-0.022 0-0.044 0-0.055s0-0.033 0-0.044c0.088 0 0.165 0.011 0.242 0.022 0.066 0 0.143 0 0.22 0s0.143 0 0.209 0c0.121 0 0.208 0 0.242 0.011 0.044 0 0.077 0.033 0.099 0.066l2.296 3.055 0.011 0.022z"></path>
<path fill="#fe3939" style="fill: var(--color1, #fe3939)" d="M81.297 28.033v3.407c0 0.099 0.044 0.165 0.121 0.209s0.22 0.066 0.406 0.088c0.044 0 0.066 0.033 0.066 0.099 0 0.033 0 0.066-0.011 0.11-0.132 0-0.274-0.011-0.428-0.022s-0.308 0-0.462 0-0.297 0-0.462 0c-0.154 0-0.297 0.011-0.44 0.022 0-0.044-0.011-0.077-0.011-0.11 0-0.055 0.022-0.088 0.066-0.099 0.187-0.022 0.33-0.055 0.417-0.099 0.088-0.033 0.132-0.11 0.132-0.209v-3.407h-0.659c-0.132 0-0.231 0.011-0.319 0.033s-0.165 0.066-0.23 0.11c-0.066 0.055-0.121 0.121-0.165 0.198s-0.099 0.176-0.142 0.286c0 0.022-0.022 0.033-0.044 0.044s-0.033 0.011-0.055 0.011c-0.044 0-0.088-0.011-0.121-0.033 0.044-0.154 0.077-0.286 0.099-0.407s0.044-0.22 0.055-0.297c0.022-0.077 0.033-0.143 0.054-0.187s0.055-0.066 0.088-0.066c0.033 0 0.077 0 0.131 0s0.11 0 0.176 0.011c0.065 0 0.121 0 0.187 0.011s0.121 0 0.176 0h2.132c0 0 0.11 0 0.176 0s0.131 0 0.187-0.011c0.066 0 0.121 0 0.176-0.011 0.055 0 0.099 0 0.132 0 0.044 0 0.077 0.022 0.088 0.066s0.033 0.11 0.055 0.187c0.022 0.077 0.033 0.176 0.054 0.297s0.055 0.253 0.099 0.396c-0.022 0-0.044 0.022-0.066 0.022s-0.044 0.011-0.066 0.011c-0.022 0-0.033 0-0.055-0.011-0.022 0-0.033-0.022-0.044-0.044-0.044-0.11-0.099-0.198-0.143-0.286-0.044-0.077-0.099-0.143-0.165-0.198s-0.132-0.088-0.22-0.11c-0.088-0.022-0.198-0.033-0.319-0.033h-0.659l0.011 0.022z"></path>
<path fill="#fe3939" style="fill: var(--color1, #fe3939)" d="M86.813 32c-0.363 0-0.671-0.055-0.934-0.165s-0.494-0.264-0.671-0.462c-0.176-0.198-0.307-0.418-0.396-0.681s-0.131-0.538-0.131-0.846c0-0.253 0.044-0.506 0.131-0.758s0.22-0.484 0.396-0.692c0.176-0.209 0.396-0.374 0.671-0.506 0.263-0.132 0.582-0.198 0.934-0.198 0.143 0 0.263 0 0.385 0s0.231 0.022 0.34 0.033c0.11 0.011 0.209 0.033 0.308 0.055s0.209 0.055 0.319 0.077c0 0.11 0.022 0.253 0.044 0.418s0.054 0.33 0.099 0.506c-0.033 0.022-0.066 0.022-0.099 0.022s-0.066 0-0.088-0.011c-0.033 0-0.044-0.033-0.055-0.066-0.077-0.286-0.198-0.484-0.363-0.604s-0.406-0.176-0.725-0.176c-0.263 0-0.494 0.044-0.703 0.132s-0.374 0.209-0.505 0.363c-0.132 0.154-0.242 0.341-0.308 0.549s-0.11 0.451-0.11 0.714c0 0.297 0.044 0.56 0.132 0.813s0.209 0.462 0.363 0.637c0.154 0.176 0.33 0.319 0.527 0.418s0.418 0.143 0.649 0.143c0.187 0 0.34-0.022 0.461-0.055s0.231-0.088 0.308-0.154c0.088-0.066 0.154-0.154 0.209-0.253s0.11-0.209 0.165-0.341c0.033-0.066 0.077-0.099 0.154-0.099 0.022 0 0.044 0 0.066 0s0.044 0.011 0.055 0.022c-0.055 0.154-0.099 0.308-0.154 0.494s-0.099 0.363-0.132 0.538c-0.209 0.033-0.417 0.066-0.637 0.077s-0.451 0.033-0.714 0.033l0.011 0.022z"></path>
<path fill="#fe3939" style="fill: var(--color1, #fe3939)" d="M88.857 29.846c0-0.297 0.055-0.571 0.165-0.824 0.11-0.264 0.253-0.484 0.44-0.681s0.396-0.352 0.637-0.462 0.494-0.176 0.769-0.176c0.374 0 0.692 0.055 0.967 0.176s0.506 0.275 0.682 0.473c0.176 0.198 0.319 0.429 0.406 0.681s0.132 0.527 0.132 0.813c0 0.341-0.055 0.637-0.165 0.901s-0.264 0.494-0.462 0.681c-0.198 0.187-0.418 0.33-0.682 0.429s-0.539 0.143-0.835 0.143c-0.296 0-0.582-0.055-0.835-0.154s-0.472-0.253-0.649-0.44c-0.176-0.187-0.319-0.418-0.417-0.681s-0.154-0.56-0.154-0.879zM91.055 31.692c0.198 0 0.385-0.033 0.549-0.11s0.308-0.187 0.429-0.319c0.121-0.132 0.208-0.297 0.274-0.484s0.099-0.396 0.099-0.615c0-0.308-0.033-0.593-0.099-0.857s-0.165-0.494-0.285-0.681c-0.132-0.198-0.297-0.341-0.495-0.461-0.197-0.11-0.428-0.165-0.692-0.165-0.176 0-0.34 0.033-0.505 0.099s-0.297 0.165-0.417 0.286c-0.121 0.121-0.22 0.275-0.286 0.461-0.077 0.187-0.11 0.396-0.11 0.637 0 0.319 0.033 0.604 0.099 0.879s0.165 0.505 0.297 0.703c0.131 0.198 0.285 0.352 0.483 0.462 0.187 0.11 0.406 0.165 0.659 0.165z"></path>
<path fill="#fe3939" style="fill: var(--color1, #fe3939)" d="M97.571 27.89c0 0 0.022-0.033 0.033-0.055 0-0.022 0.033-0.033 0.054-0.033s0.055-0.011 0.099-0.022c0.044-0.011 0.099 0 0.176 0 0.033 0 0.077 0 0.131 0s0.11 0 0.176 0 0.131 0 0.197 0c0.066 0 0.132 0 0.187-0.011 0 0.044 0.011 0.077 0.011 0.099 0 0.066-0.022 0.099-0.066 0.11-0.154 0.022-0.253 0.055-0.308 0.088s-0.077 0.088-0.077 0.143c0 0 0 0.066 0 0.165s0.011 0.286 0.033 0.538c0.022 0.253 0.033 0.593 0.044 1.011 0.022 0.418 0.044 0.945 0.066 1.571 0 0.077 0.033 0.143 0.088 0.176s0.154 0.066 0.308 0.099c0.022 0 0.033 0.011 0.044 0.033 0 0.022 0.012 0.044 0.012 0.066s0 0.055-0.012 0.099c-0.154 0-0.285-0.011-0.406-0.022s-0.231 0-0.34 0c-0.044 0-0.099 0-0.165 0s-0.132 0-0.198 0c-0.066 0-0.143 0-0.208 0s-0.132 0-0.176 0.011c0-0.044-0.011-0.077-0.011-0.099 0-0.066 0.022-0.099 0.066-0.099 0.165-0.033 0.286-0.066 0.352-0.099s0.088-0.088 0.088-0.176c0-0.011 0-0.088 0-0.231s-0.011-0.319-0.022-0.527c0-0.209-0.022-0.44-0.033-0.681s-0.022-0.473-0.033-0.681c0-0.22-0.022-0.396-0.033-0.56 0-0.154-0.011-0.253-0.011-0.286l-1.396 3.374c0 0-0.033 0.066-0.044 0.088s-0.033 0.033-0.066 0.033c-0.033 0-0.044 0-0.055 0l-1.561-3.582c0 0 0 0.143-0.011 0.308s-0.011 0.363-0.022 0.582c0 0.231-0.022 0.462-0.033 0.714s-0.022 0.484-0.033 0.692c0 0.209-0.022 0.396-0.022 0.538s0 0.22 0 0.231c0 0.132 0.143 0.22 0.439 0.275 0.044 0 0.066 0.033 0.066 0.099 0 0.022 0 0.055-0.011 0.099-0.11 0-0.231-0.011-0.34-0.022s-0.209 0-0.297 0c-0.066 0-0.165 0-0.275 0s-0.219 0.011-0.33 0.022c0-0.044-0.011-0.077-0.011-0.099 0-0.055 0.022-0.088 0.066-0.099 0.11-0.022 0.209-0.055 0.274-0.088 0.066-0.044 0.11-0.099 0.121-0.187 0-0.033 0-0.143 0.011-0.319 0-0.176 0.022-0.385 0.033-0.626 0-0.242 0.022-0.505 0.033-0.769 0.011-0.275 0.022-0.527 0.033-0.758 0-0.231 0.022-0.429 0.022-0.571 0-0.154 0-0.231 0-0.231 0-0.066-0.022-0.121-0.077-0.154s-0.154-0.066-0.308-0.088c-0.044 0-0.066-0.044-0.066-0.11 0-0.022 0-0.055 0.011-0.099 0.055 0 0.121 0 0.187 0.011 0.066 0 0.143 0 0.209 0s0.132 0 0.198 0c0.065 0 0.11 0 0.154 0 0.076 0 0.131 0 0.176 0s0.077 0.011 0.099 0.022c0.022 0 0.044 0.022 0.055 0.033 0 0.022 0.022 0.033 0.033 0.055l1.363 3.187 1.296-3.187h0.011z"></path>
<path fill="#fe3939" style="fill: var(--color1, #fe3939)" d="M100.506 30.121v1.308c0 0.099 0.044 0.165 0.142 0.209 0.088 0.044 0.231 0.077 0.418 0.099 0.054 0 0.077 0.044 0.077 0.11 0 0.033 0 0.066-0.011 0.11-0.121 0-0.264-0.011-0.418-0.022s-0.33 0-0.505 0c-0.11 0-0.231 0-0.374 0s-0.275 0.011-0.396 0.022c0-0.044-0.011-0.077-0.011-0.099 0-0.055 0.022-0.088 0.066-0.099 0.165-0.033 0.285-0.066 0.34-0.099s0.088-0.088 0.088-0.176v-3.253c0-0.088-0.033-0.143-0.099-0.187s-0.187-0.066-0.352-0.088c-0.044 0-0.065-0.044-0.065-0.11 0-0.033 0-0.066 0.011-0.099 0.121 0 0.242 0.011 0.385 0.022s0.263 0 0.384 0h0.901c0.462 0 0.802 0.11 1.033 0.33s0.34 0.494 0.34 0.846c0 0.132-0.033 0.275-0.088 0.418-0.065 0.143-0.154 0.264-0.263 0.385s-0.263 0.209-0.44 0.275c-0.176 0.077-0.362 0.11-0.582 0.11h-0.549l-0.033-0.011zM100.846 29.857c0.297 0 0.528-0.066 0.692-0.198s0.242-0.352 0.242-0.67c0-0.132-0.011-0.253-0.044-0.374s-0.077-0.22-0.154-0.308c-0.077-0.088-0.165-0.154-0.285-0.209s-0.264-0.077-0.451-0.077h-0.34v1.824h0.34v0.011z"></path>
<path fill="#fe3939" style="fill: var(--color1, #fe3939)" d="M104.758 30.396h-1.428l-0.407 1.033c0 0-0.033 0.099-0.033 0.132 0 0.088 0.132 0.154 0.385 0.187 0.033 0 0.055 0.011 0.066 0.033 0 0.022 0.011 0.044 0.011 0.066s0 0.055-0.011 0.099c-0.11 0-0.231-0.011-0.363-0.022s-0.253 0-0.374 0c-0.088 0-0.176 0-0.263 0s-0.187 0.011-0.286 0.022c0-0.033-0.011-0.066-0.011-0.099s0-0.055 0.011-0.077c0-0.022 0.033-0.033 0.066-0.033 0.132-0.022 0.231-0.044 0.297-0.077s0.11-0.077 0.143-0.154l1.538-3.703c0.033-0.077 0.066-0.11 0.121-0.11 0.022 0 0.044 0 0.077 0.011l1.55 3.813c0.022 0.055 0.088 0.11 0.176 0.143s0.176 0.055 0.263 0.066c0.022 0 0.044 0.022 0.066 0.033 0.011 0.011 0.022 0.044 0.022 0.077 0 0.022 0 0.055-0.011 0.099-0.131 0-0.274-0.011-0.406-0.022s-0.253 0-0.374 0c-0.121 0-0.253 0-0.406 0s-0.297 0.011-0.417 0.022c0-0.044-0.011-0.077-0.011-0.099 0-0.033 0-0.066 0.022-0.077 0.011-0.011 0.033-0.022 0.044-0.022 0.11-0.022 0.198-0.044 0.264-0.077s0.099-0.066 0.099-0.121c0-0.022 0-0.055-0.022-0.099l-0.406-1.055 0.011 0.011zM104.66 30.132l-0.594-1.56-0.615 1.56h1.209z"></path>
<path fill="#fe3939" style="fill: var(--color1, #fe3939)" d="M110 30.901v-2.67c0-0.088-0.033-0.165-0.099-0.198s-0.187-0.066-0.34-0.088c-0.044 0-0.066-0.044-0.066-0.11 0-0.022 0-0.055 0.011-0.099 0.11 0 0.22 0.011 0.33 0.022 0.11 0 0.219 0 0.307 0s0.187 0 0.297 0c0.11 0 0.198-0.011 0.297-0.022 0 0.044 0.011 0.077 0.011 0.099 0 0.066-0.022 0.099-0.066 0.11-0.142 0.022-0.242 0.055-0.296 0.088s-0.077 0.099-0.077 0.187v3.758c0 0-0.022 0-0.044 0s-0.033 0-0.055 0-0.054 0-0.088-0.022c-0.022-0.011-0.054-0.044-0.088-0.088l-2.593-3.418v3.011c0 0.088 0.033 0.143 0.088 0.176s0.176 0.066 0.34 0.099c0.044 0 0.066 0.044 0.066 0.099 0 0.022 0 0.055-0.011 0.099-0.11 0-0.208-0.011-0.319-0.022s-0.209 0-0.308 0c-0.088 0-0.187 0-0.297 0s-0.219 0.011-0.308 0.022c0-0.044-0.011-0.077-0.011-0.099 0-0.055 0.022-0.088 0.066-0.099 0.154-0.033 0.253-0.066 0.308-0.099s0.077-0.088 0.077-0.176v-3.286c0-0.066-0.022-0.121-0.077-0.154-0.044-0.033-0.154-0.066-0.308-0.088-0.044 0-0.066-0.044-0.066-0.11 0-0.022 0-0.044 0-0.055s0-0.033 0-0.044c0.088 0 0.165 0.011 0.242 0.022 0.066 0 0.143 0 0.22 0s0.143 0 0.209 0c0.121 0 0.209 0 0.242 0.011 0.044 0 0.077 0.033 0.099 0.066l2.297 3.055 0.011 0.022z"></path>
<path fill="#fe3939" style="fill: var(--color1, #fe3939)" d="M112.594 30.077l-1.066-1.912c-0.044-0.066-0.099-0.11-0.165-0.143s-0.154-0.055-0.263-0.077c-0.022 0-0.033-0.022-0.044-0.033 0-0.022-0.011-0.044-0.011-0.077v-0.033c0 0 0-0.022 0-0.033s0-0.022 0-0.033c0.088 0 0.209 0.011 0.363 0.022 0.142 0 0.285 0 0.417 0 0.055 0 0.11 0 0.176 0s0.143 0 0.209 0c0.077 0 0.143 0 0.208 0s0.121 0 0.165-0.011c0 0.022 0 0.033 0 0.044s0 0.022 0 0.033v0.022c0 0.022 0 0.044-0.012 0.066 0 0.022-0.022 0.033-0.044 0.033-0.121 0.022-0.209 0.033-0.263 0.066s-0.077 0.055-0.077 0.099c0 0.033 0.011 0.077 0.044 0.121l0.791 1.429 0.748-1.33c0.044-0.077 0.066-0.132 0.066-0.176 0-0.055-0.033-0.099-0.088-0.132s-0.142-0.055-0.274-0.077c-0.044 0-0.066-0.044-0.066-0.11 0-0.022 0-0.044 0-0.055s0-0.033 0-0.044c0.088 0 0.198 0.011 0.33 0.022 0.121 0 0.242 0 0.352 0 0.099 0 0.197 0 0.308 0s0.219-0.011 0.319-0.022c0 0.022 0 0.033 0 0.044s0 0.022 0 0.033v0.022c0 0.055-0.022 0.099-0.066 0.11-0.154 0.022-0.253 0.044-0.319 0.077s-0.11 0.088-0.154 0.165l-1.033 1.835v1.429c0 0.099 0.033 0.154 0.11 0.198 0.066 0.033 0.187 0.066 0.352 0.088 0.044 0 0.065 0.044 0.065 0.099 0 0 0 0.022 0 0.033s0 0.022 0 0.033 0 0.033 0 0.033c-0.099 0-0.197 0-0.296-0.011-0.088 0-0.176 0-0.275-0.011-0.099 0-0.176 0-0.253 0s-0.154 0-0.253 0c-0.099 0-0.187 0-0.264 0.011-0.099 0-0.197 0-0.296 0.011 0 0 0-0.022 0-0.033 0 0 0-0.022 0-0.033v-0.033c0-0.055 0.022-0.088 0.065-0.099 0.165-0.033 0.286-0.066 0.363-0.099s0.11-0.099 0.11-0.187v-1.374h0.022z"></path>
<path fill="#fff" style="fill: var(--color2, #fff)" d="M1.286 0h30.385c0.714 0 1.286 0.56 1.286 1.253v29.494c0 0.692-0.582 1.253-1.286 1.253h-30.385c-0.714 0-1.286-0.56-1.286-1.253v-29.494c0-0.692 0.582-1.253 1.286-1.253z"></path>
<path fill="#5884ff" style="fill: var(--color3, #5884ff)" d="M32.956 13.582v17.143c0 0.692-0.571 1.264-1.275 1.264h-19.857c-0.923-1.099-1.67-2.352-2.209-3.692-0.648-1.604-1-3.341-1-5.176 0-7.703 6.308-13.945 14.077-13.945 2.385 0 4.637 0.582 6.604 1.626 1.374 0.725 2.615 1.67 3.67 2.78h-0.011z"></path>
<path fill="#030f3e" style="fill: var(--color4, #030f3e)" d="M32.956 9.835c-0.088-0.088-0.187-0.165-0.275-0.253-0.165-0.154-0.418-0.143-0.56 0.022-0.198 0.22-0.396 0.429-0.593 0.648-0.055 0.055-0.099 0.11-0.143 0.165-0.22 0.242-0.44 0.484-0.659 0.725-0.066 0.066-0.132 0.143-0.187 0.209-0.088 0.099-0.176 0.198-0.264 0.297-0.418 0.462-0.604 0.044-2.22-0.736-0.022-0.011-0.055-0.022-0.077-0.033-1.275-0.308-1.527-0.319-1.494-0.846 0-0.11 0.011-0.22 0.022-0.319 0.011-0.22 0.022-0.44 0.033-0.659 0-0.088 0-0.176 0.011-0.264 0-0.044 0-0.088 0-0.132 0-0.11 0-0.231 0.011-0.341 0-0.11 0-0.231 0.011-0.341 0-0.11 0-0.231 0.011-0.341 0-0.11 0-0.231 0.011-0.341 0-0.22-0.165-0.407-0.385-0.418l-4.78-0.22c-0.22 0-0.407 0.154-0.418 0.374 0 0.077 0 0.154-0.011 0.22 0 0.077 0 0.154-0.011 0.22v0.088c-0.011 0.099-0.022 0.198-0.022 0.297-0.022 0.461-0.055 0.912-0.077 1.374 0 0.044 0 0.099 0 0.143 0 0.011 0 0.033 0 0.044 0 0.044 0 0.088 0 0.143s0 0.121 0 0.176c-0.011 0.363-0.121 0.495-0.484 0.582-0.901 0.231-1.791 0.484-2.648 0.824-0.451 0.176-0.67 0.121-0.934-0.264-0.033-0.055-0.077-0.11-0.11-0.154-0.044-0.066-0.088-0.121-0.132-0.187-0.033-0.044-0.066-0.088-0.099-0.132-0.044-0.055-0.077-0.11-0.121-0.154-0.132-0.176-0.264-0.352-0.396-0.527-0.044-0.055-0.088-0.121-0.132-0.176-0.176-0.231-0.363-0.462-0.538-0.703-0.132-0.176-0.385-0.209-0.56-0.077-1.297 0.989-2.549 1.945-3.824 2.923-0.176 0.132-0.209 0.385-0.077 0.56 0.231 0.308 0.461 0.604 0.681 0.901 0.088 0.121 0.176 0.231 0.264 0.352 0.044 0.055 0.088 0.121 0.132 0.176 0.187 0.242 0.374 0.484 0.56 0.714 0.209 0.264 0.198 0.44 0 0.714-0.56 0.802-1.099 1.626-1.582 2.473-0.187 0.33-0.352 0.385-0.692 0.297-0.088-0.022-0.176-0.044-0.275-0.066-0.033 0-0.055-0.011-0.088-0.022-0.077-0.022-0.143-0.033-0.22-0.055s-0.165-0.033-0.242-0.055c-0.077-0.022-0.143-0.033-0.22-0.055-0.22-0.055-0.44-0.099-0.659-0.143-0.143-0.033-0.297-0.066-0.44-0.099-0.154-0.033-0.297-0.066-0.451-0.099-0.22-0.044-0.429 0.088-0.473 0.308l-1.055 4.681c-0.044 0.22 0.088 0.429 0.297 0.473 0.385 0.088 0.769 0.176 1.143 0.264 0.22 0.044 0.429 0.099 0.637 0.143 0.264 0.055 0.527 0.11 0.802 0.165 0.341 0.066 0.484 0.187 0.517 0.56 0.099 1.011 0.264 2.011 0.374 3.022 0.011 0.154-0.099 0.396-0.22 0.473-0.033 0.022-0.066 0.044-0.099 0.066s-0.066 0.033-0.099 0.055c0 0 0 0-0.011 0-0.033 0.022-0.066 0.033-0.099 0.055s-0.066 0.033-0.088 0.055c-0.143 0.077-0.286 0.154-0.429 0.22-0.044 0.022-0.099 0.044-0.143 0.077-0.044 0.022-0.099 0.044-0.143 0.077-0.044 0.022-0.099 0.044-0.143 0.077-0.044 0.022-0.099 0.044-0.143 0.077-0.363 0.187-0.725 0.374-1.099 0.571-0.198 0.099-0.275 0.341-0.176 0.538l1.418 2.736v0.033h23.297c0.714 0 1.286-0.582 1.286-1.286v-20.824zM25.615 30.297c-0.901 0.352-1.89 0.527-2.923 0.473-3.319-0.165-6.011-2.571-6.681-5.67-0.121-0.582-0.176-1.198-0.154-1.824 0.187-3.923 3.582-7.011 7.506-6.813 0.659 0.033 1.286 0.154 1.89 0.352 2.989 0.978 5.077 3.857 4.923 7.143-0.088 1.78-0.813 3.374-1.945 4.571-0.725 0.769-1.615 1.374-2.615 1.769z"></path>
<path fill="#5884ff" style="fill: var(--color3, #5884ff)" d="M26.297 15.879c-1.121-0.593-2.385-0.934-3.747-0.934-4.407 0-7.978 3.571-7.978 7.978 0 1.044 0.198 2.044 0.571 2.956 1.176 2.945 4.055 5.022 7.418 5.022 4.407 0 7.978-3.571 7.978-7.978 0-3.055-1.714-5.703-4.242-7.055v0.011z"></path>
<path fill="#030f3e" style="fill: var(--color4, #030f3e)" d="M32.956 9.868v0.033l-6.659 5.978c-1.121-0.593-2.385-0.934-3.747-0.934-4.407 0-7.978 3.571-7.978 7.978 0 1.044 0.198 2.044 0.571 2.956l-6.78 6.077-1.418-2.736c-0.099-0.198-0.022-0.44 0.176-0.538 0.374-0.198 0.736-0.385 1.099-0.571 0.044-0.022 0.099-0.044 0.143-0.077 0.044-0.022 0.099-0.044 0.143-0.077s0.099-0.044 0.143-0.077c0.044-0.022 0.099-0.044 0.143-0.077 0.143-0.077 0.286-0.143 0.429-0.22 0.033-0.022 0.066-0.033 0.088-0.055 0.033-0.022 0.066-0.033 0.099-0.055 0 0 0 0 0.011 0 0.033-0.022 0.066-0.033 0.099-0.055s0.066-0.044 0.099-0.066c0.132-0.077 0.242-0.319 0.22-0.473-0.11-1.011-0.286-2.011-0.374-3.022-0.033-0.374-0.176-0.494-0.517-0.56-0.264-0.055-0.528-0.11-0.802-0.165-0.209-0.044-0.429-0.099-0.637-0.143-0.374-0.088-0.758-0.176-1.143-0.264-0.209-0.055-0.352-0.264-0.297-0.473l1.055-4.681c0.044-0.209 0.264-0.352 0.473-0.308 0.154 0.033 0.297 0.066 0.451 0.099s0.297 0.066 0.44 0.099c0.22 0.044 0.44 0.099 0.659 0.143 0.077 0.011 0.143 0.033 0.22 0.055 0.088 0.022 0.165 0.033 0.242 0.055s0.143 0.033 0.22 0.055c0.033 0 0.055 0.011 0.088 0.022 0.088 0.022 0.187 0.044 0.275 0.066 0.341 0.088 0.505 0.033 0.692-0.297 0.484-0.846 1.022-1.67 1.582-2.473 0.198-0.286 0.209-0.451 0-0.714-0.187-0.242-0.374-0.473-0.56-0.714-0.044-0.055-0.088-0.121-0.132-0.176-0.088-0.121-0.176-0.231-0.264-0.352-0.22-0.297-0.451-0.593-0.681-0.901-0.132-0.176-0.099-0.429 0.077-0.56 1.275-0.967 2.527-1.934 3.824-2.923 0.176-0.132 0.429-0.099 0.56 0.077 0.176 0.231 0.363 0.462 0.539 0.703 0.044 0.055 0.088 0.121 0.132 0.176 0.077 0.099 0.154 0.209 0.231 0.308 0.022 0.033 0.044 0.055 0.066 0.088 0.033 0.044 0.066 0.088 0.099 0.132 0.044 0.055 0.077 0.099 0.121 0.154 0.033 0.044 0.066 0.088 0.099 0.132 0.044 0.066 0.088 0.121 0.132 0.187 0.033 0.055 0.077 0.11 0.11 0.154 0.275 0.385 0.484 0.44 0.934 0.264 0.857-0.341 1.758-0.593 2.648-0.824 0.363-0.088 0.473-0.22 0.483-0.582 0-0.055 0-0.121 0-0.176 0-0.044 0-0.088 0-0.143 0-0.011 0-0.033 0-0.044 0-0.044 0-0.099 0-0.143 0.022-0.462 0.044-0.912 0.077-1.374 0-0.099 0.011-0.198 0.022-0.297v-0.088c0-0.077 0.011-0.154 0.022-0.22 0-0.077 0-0.154 0.011-0.22 0.011-0.22 0.198-0.385 0.418-0.374l4.78 0.22c0.22 0 0.396 0.198 0.385 0.418 0 0.11 0 0.231-0.011 0.341 0 0.11 0 0.231-0.011 0.341 0 0.11 0 0.231-0.011 0.341s0 0.231-0.011 0.341c0 0.044 0 0.088 0 0.132 0 0.088 0 0.176-0.011 0.264 0 0.22-0.022 0.44-0.033 0.659 0 0.11-0.011 0.22-0.022 0.319-0.033 0.538 0.22 0.549 1.494 0.846 0.033 0 0.055 0.022 0.077 0.033 1.615 0.78 1.802 1.209 2.22 0.736 0.088-0.099 0.176-0.198 0.264-0.297 0.066-0.066 0.121-0.143 0.187-0.209 0.22-0.242 0.44-0.484 0.659-0.725 0.044-0.055 0.099-0.11 0.143-0.165 0.198-0.209 0.396-0.429 0.593-0.648 0.154-0.165 0.407-0.176 0.56-0.022 0.088 0.088 0.187 0.165 0.275 0.253 0.011 0 0 0.011 0 0.022v0.033z"></path>
</symbol>
<symbol id="icon-bin" viewBox="0 0 32 32">
<path d="M4 10v20c0 1.1 0.9 2 2 2h18c1.1 0 2-0.9 2-2v-20h-22zM10 28h-2v-14h2v14zM14 28h-2v-14h2v14zM18 28h-2v-14h2v14zM22 28h-2v-14h2v14z"></path>
<path d="M26.5 4h-6.5v-2.5c0-0.825-0.675-1.5-1.5-1.5h-7c-0.825 0-1.5 0.675-1.5 1.5v2.5h-6.5c-0.825 0-1.5 0.675-1.5 1.5v2.5h26v-2.5c0-0.825-0.675-1.5-1.5-1.5zM18 4h-6v-1.975h6v1.975z"></path>
</symbol>
<symbol id="icon-cross" viewBox="0 0 32 32">
<path d="M31.708 25.708c-0-0-0-0-0-0l-9.708-9.708 9.708-9.708c0-0 0-0 0-0 0.105-0.105 0.18-0.227 0.229-0.357 0.133-0.356 0.057-0.771-0.229-1.057l-4.586-4.586c-0.286-0.286-0.702-0.361-1.057-0.229-0.13 0.048-0.252 0.124-0.357 0.228 0 0-0 0-0 0l-9.708 9.708-9.708-9.708c-0-0-0-0-0-0-0.105-0.104-0.227-0.18-0.357-0.228-0.356-0.133-0.771-0.057-1.057 0.229l-4.586 4.586c-0.286 0.286-0.361 0.702-0.229 1.057 0.049 0.13 0.124 0.252 0.229 0.357 0 0 0 0 0 0l9.708 9.708-9.708 9.708c-0 0-0 0-0 0-0.104 0.105-0.18 0.227-0.229 0.357-0.133 0.355-0.057 0.771 0.229 1.057l4.586 4.586c0.286 0.286 0.702 0.361 1.057 0.229 0.13-0.049 0.252-0.124 0.357-0.229 0-0 0-0 0-0l9.708-9.708 9.708 9.708c0 0 0 0 0 0 0.105 0.105 0.227 0.18 0.357 0.229 0.356 0.133 0.771 0.057 1.057-0.229l4.586-4.586c0.286-0.286 0.362-0.702 0.229-1.057-0.049-0.13-0.124-0.252-0.229-0.357z"></path>
</symbol>
</defs>
</svg>
